# xmcd CD database file
#
# Track frame offsets:
#	150
#	19702
#	33902
#
# Disc length: 712 seconds
#
# Revision: 1
# Processed by: cddbd v1.5.1PL0 Copyright (c) Steve Scherf et al.
# Submitted via: CDex 1.51
#
DISCID=1702c603
DTITLE=エレファントカシマシ - 夢のかけら
DYEAR=1998
DGENRE=Rock
TTITLE0=夢のかけら
TTITLE1=ココロのままに
TTITLE2=夢のかけら (カラオケ)
EXTD=YEAR: 1998.9.18
EXTT0=
EXTT1=
EXTT2=
PLAYORDER=
